<svg width="48" height="48" viewBox="0 0 48 48" fill="none" xmlns="http://www.w3.org/2000/svg">
<path d="M1.52319 3.52744C0.703011 3.52744 0 2.72372 0 1.7414C0 0.803721 0.703011 0 1.52319 0H5.50692C5.54597 0 5.62408 0 5.66314 0C7.06916 0.0446512 8.31896 0.357209 9.37347 1.11628C10.5452 1.96465 11.4044 3.25953 11.8731 5.17954C11.8731 5.22419 11.8731 5.26884 11.9121 5.31349L12.3027 7.09953H46.4768C47.336 7.09953 48 7.90326 48 8.84093C48 9.01953 47.9609 9.19814 47.9219 9.37674L43.9382 27.7284C43.7819 28.5321 43.157 29.0679 42.454 29.0679H17.4581C18.0049 31.3898 18.5517 32.64 19.2937 33.2205C20.192 33.8902 21.7543 33.9349 24.371 33.8902H24.4101H42.0635C42.9227 33.8902 43.5867 34.694 43.5867 35.6316C43.5867 36.614 42.8836 37.373 42.0635 37.373H24.4101C21.1684 37.4177 19.1766 37.3284 17.5753 36.1228C15.9349 34.8726 15.0757 32.7293 14.2164 28.8447L8.98291 6.20651C8.98291 6.16186 8.98291 6.16186 8.94386 6.11721C8.70952 5.13488 8.31896 4.46512 7.77217 4.10791C7.22539 3.70605 6.48332 3.52744 5.62408 3.52744C5.58503 3.52744 5.54597 3.52744 5.50692 3.52744H1.52319V3.52744ZM37.4939 39.427C39.5639 39.427 41.2433 41.347 41.2433 43.7135C41.2433 46.08 39.5639 48 37.4939 48C35.4239 48 33.7445 46.08 33.7445 43.7135C33.7445 41.347 35.4239 39.427 37.4939 39.427ZM21.0513 39.427C23.1212 39.427 24.8007 41.347 24.8007 43.7135C24.8007 46.08 23.1212 48 21.0513 48C18.9813 48 17.3019 46.08 17.3019 43.7135C17.3019 41.347 18.9813 39.427 21.0513 39.427ZM13.1619 10.5823L16.6379 25.5405H41.2823L44.524 10.5823H13.1619V10.5823Z" fill="white"/>
</svg>
