<svg width="83" height="66" viewBox="0 0 83 66" fill="none" xmlns="http://www.w3.org/2000/svg">
<path fill-rule="evenodd" clip-rule="evenodd" d="M82.4849 34.3717C83.1848 32.7724 82.8578 30.8123 81.5575 29.5709L64.9325 13.7C63.3357 12.1756 60.8757 12.3123 59.4379 14.0053C58.0001 15.6983 58.129 18.3065 59.7259 19.8309L73.2036 32.6974L59.6448 45.6412C58.048 47.1656 57.9191 49.7739 59.3568 51.4669C60.7946 53.1599 63.2546 53.2966 64.8515 51.7722L81.4764 35.9012C81.9338 35.4646 82.2707 34.9392 82.4849 34.3717ZM9.64121 32.6609L23.119 19.7945C24.7158 18.2701 24.8447 15.6618 23.4069 13.9688C21.9691 12.2758 19.5091 12.1391 17.9123 13.6635L1.28732 29.5345C-0.0130305 30.7758 -0.339952 32.736 0.359921 34.3353C0.57412 34.9027 0.911046 35.4282 1.36838 35.8648L17.9933 51.7357C19.5902 53.2601 22.0502 53.1234 23.488 51.4304C24.9258 49.7374 24.7968 47.1292 23.2 45.6048L9.64121 32.6609ZM52.5633 0.249891C54.5825 1.02907 55.6235 3.39617 54.8886 5.53696L35.2612 62.7114C34.5263 64.8522 32.2937 65.956 30.2746 65.1768C28.2554 64.3976 27.2143 62.0305 27.9492 59.8897L47.5767 2.71529C48.3116 0.574506 50.5442 -0.529291 52.5633 0.249891Z" fill="white"/>
</svg>
